<svg id="Capa_1" data-name="Capa 1" xmlns="http://www.w3.org/2000/svg" viewBox="0 0 30.23 35.46"><defs><style>.cls-1{fill:#fff;}</style></defs><title>ccell</title><path class="cls-1" d="M61,41.66a2.63,2.63,0,0,1,1.58,2.12c.43,1.85.83,3.71,1.22,5.57a4.92,4.92,0,0,1,.09.86A1.73,1.73,0,0,1,62.66,52q-.87.31-1.77.6a1.42,1.42,0,0,0-1,1.13A3.83,3.83,0,0,0,60,56a23.82,23.82,0,0,0,7.24,10.51A15.33,15.33,0,0,0,69.4,68a2.69,2.69,0,0,0,1.66.29,1.31,1.31,0,0,0,1-.58l1-1.43a1.85,1.85,0,0,1,2.54-.75c.59.25,1.14.58,1.71.89l3.18,1.75c.28.16.54.32.8.49a2.59,2.59,0,0,1,1.36,2l-.1.7c-.24.54-.43,1.1-.71,1.61a7.49,7.49,0,0,1-5.73,4c-.51.07-1,0-1.56.07l-1.21-.17c-.49-.15-1-.28-1.45-.46a19.34,19.34,0,0,1-6.24-3.95,45.23,45.23,0,0,1-6-6.62A44.83,44.83,0,0,1,54,56.47a18.26,18.26,0,0,1-1.57-5.85c0-.6,0-1.2,0-1.8l.17-1.21a1.48,1.48,0,0,0,.1-.27,7.41,7.41,0,0,1,5.67-5.52,14,14,0,0,1,2-.26Z" transform="translate(-52.42 -41.56)"/></svg>