<?xml version="1.0" encoding="utf-8"?>
<!-- Generator: Adobe Illustrator 24.0.2, SVG Export Plug-In . SVG Version: 6.00 Build 0)  -->
<svg version="1.1" id="Capa_1" xmlns="http://www.w3.org/2000/svg" xmlns:xlink="http://www.w3.org/1999/xlink" x="0px" y="0px"
	 viewBox="0 0 20 20" style="enable-background:new 0 0 20 20;" xml:space="preserve">
<style type="text/css">
	.st0{display:none;}
	.st1{fill:#FFFFFF;}
</style>
<g id="Capa_1_1_" class="st0">
	
		<image style="display:inline;overflow:visible;enable-background:new    ;" width="512" height="512" xlink:href="A1656C91.png"  transform="matrix(0.75 0 0 0.75 -182 -182)">
	</image>
</g>
<g id="Capa_2_1_">
	<g>
		<g>
			<path class="st1" d="M6.9,10.6H6.5c-0.2,0-0.3,0.1-0.3,0.3v0.3c0,0.2,0.1,0.3,0.3,0.3h0.5c0.2,0,0.3-0.1,0.3-0.3v-0.3
				C7.2,10.7,7.1,10.6,6.9,10.6z"/>
			<path class="st1" d="M14.8,8.8H5.2c-0.3,0-0.6,0.3-0.6,0.6v5.5c0,0.3,0.3,0.6,0.6,0.6h9.7c0.3,0,0.6-0.3,0.6-0.6V9.4
				C15.4,9.1,15.2,8.8,14.8,8.8z M7.2,14.1H5.6v-0.7h1.6C7.2,13.5,7.2,14.1,7.2,14.1z M7.9,11.5c0,0.3-0.3,0.6-0.6,0.6H6.1
				c-0.3,0-0.6-0.3-0.6-0.6v-0.9c0-0.3,0.3-0.6,0.6-0.6h1.2c0.3,0,0.6,0.3,0.6,0.6C7.9,10.6,7.9,11.5,7.9,11.5z M9.6,14.1H8v-0.7
				h1.6V14.1z M12,14.1h-1.6v-0.7H12V14.1z M14.4,14.1h-1.6v-0.7h1.6V14.1z"/>
		</g>
		<g>
			<path class="st1" d="M13.1,6.2l-1.4-1.4c-0.2-0.2-0.6-0.2-0.9,0L7.4,8.2h3.6L13.1,6.2z"/>
		</g>
		<g>
			<polygon class="st1" points="13.9,8.2 15.2,8.2 14.6,7.6 			"/>
			<polygon class="st1" points="14.1,7.1 13.6,6.7 12,8.2 13,8.2 			"/>
		</g>
	</g>
</g>
</svg>
