<svg id="Capa_1" data-name="Capa 1" xmlns="http://www.w3.org/2000/svg" viewBox="0 0 35.38 27.23"><defs><style>.cls-1{fill:#fff;}</style></defs><title>mensaje</title><path class="cls-1" d="M591.56,370.6l12.3,13.95a3.69,3.69,0,0,0,5.52,0l12.08-13.71a1.14,1.14,0,0,1,.35-.27,4.11,4.11,0,0,0-1.68-.35h-27a4,4,0,0,0-1.6.32A.34.34,0,0,1,591.56,370.6Z" transform="translate(-588.93 -370.22)"/><path class="cls-1" d="M623.67,372.17a1.25,1.25,0,0,1-.24.4l-12.08,13.71a6.3,6.3,0,0,1-9.46,0l-12.3-13.95-.06-.09a4.14,4.14,0,0,0-.6,2.15v18.88a4.18,4.18,0,0,0,4.17,4.18h27a4.18,4.18,0,0,0,4.18-4.18V374.39A4.23,4.23,0,0,0,623.67,372.17Z" transform="translate(-588.93 -370.22)"/></svg>